<svg width="486" height="391" viewBox="0 0 486 391" fill="none" xmlns="http://www.w3.org/2000/svg">
<g clip-path="url(#clip0_70_7807)">
<mask id="mask0_70_7807" style="mask-type:luminance" maskUnits="userSpaceOnUse" x="0" y="0" width="486" height="391">
<path d="M475.927 0H10.0725C4.50963 0 0 4.50963 0 10.0725V380.238C0 385.801 4.50963 390.311 10.0725 390.311H475.927C481.49 390.311 486 385.801 486 380.238V10.0725C486 4.50963 481.49 0 475.927 0Z" fill="white"/>
</mask>
<g mask="url(#mask0_70_7807)">
<path d="M475.927 0H10.0725C4.50963 0 0 4.50963 0 10.0725V380.238C0 385.801 4.50963 390.311 10.0725 390.311H475.927C481.49 390.311 486 385.801 486 380.238V10.0725C486 4.50963 481.49 0 475.927 0Z" fill="#F5F5FE"/>
<mask id="mask1_70_7807" style="mask-type:luminance" maskUnits="userSpaceOnUse" x="62" y="45" width="482" height="439">
<path d="M533.845 45.3264H73.0259C67.463 45.3264 62.9534 49.8361 62.9534 55.399V473.409C62.9534 478.972 67.463 483.482 73.0259 483.482H533.845C539.408 483.482 543.917 478.972 543.917 473.409V55.399C543.917 49.8361 539.408 45.3264 533.845 45.3264Z" fill="white"/>
</mask>
<g mask="url(#mask1_70_7807)">
<path d="M533.845 45.3264H73.0259C67.463 45.3264 62.9534 49.8361 62.9534 55.399V473.409C62.9534 478.972 67.463 483.482 73.0259 483.482H533.845C539.408 483.482 543.917 478.972 543.917 473.409V55.399C543.917 49.8361 539.408 45.3264 533.845 45.3264Z" fill="white"/>
<path d="M78.0621 65.4715C80.8436 65.4715 83.0984 63.2167 83.0984 60.4352C83.0984 57.6538 80.8436 55.399 78.0621 55.399C75.2807 55.399 73.0259 57.6538 73.0259 60.4352C73.0259 63.2167 75.2807 65.4715 78.0621 65.4715Z" fill="#D9D9D9"/>
<path d="M93.171 65.4715C95.9525 65.4715 98.2073 63.2167 98.2073 60.4352C98.2073 57.6538 95.9525 55.399 93.171 55.399C90.3896 55.399 88.1348 57.6538 88.1348 60.4352C88.1348 63.2167 90.3896 65.4715 93.171 65.4715Z" fill="#D9D9D9"/>
<path d="M108.28 65.4715C111.061 65.4715 113.316 63.2167 113.316 60.4352C113.316 57.6538 111.061 55.399 108.28 55.399C105.498 55.399 103.244 57.6538 103.244 60.4352C103.244 63.2167 105.498 65.4715 108.28 65.4715Z" fill="#27A658"/>
<path d="M543.602 45.6412H63.2682V75.2293H543.602V45.6412Z" stroke="#161616"/>
<path d="M89.5613 110.798V101.103H92.0127L94.381 105.175L96.7493 101.103H99.2007V110.798H97.234V103.845L95.0735 107.474H93.6885L91.5279 103.845V110.798H89.5613ZM108.003 109.662C107.352 110.535 106.272 111.075 104.956 111.075C102.477 111.075 101.078 109.344 101.078 107.308C101.078 105.244 102.38 103.541 104.665 103.541C106.604 103.541 107.878 104.856 107.878 106.685C107.878 107.072 107.823 107.432 107.767 107.668H102.878C103.045 108.97 103.848 109.496 104.942 109.496C105.704 109.496 106.369 109.164 106.743 108.665L108.003 109.662ZM104.623 104.981C103.723 104.981 103.128 105.48 102.934 106.394H106.147C106.119 105.687 105.607 104.981 104.623 104.981ZM108.893 109.787L110.056 108.734C110.486 109.274 110.998 109.662 111.663 109.662C112.231 109.662 112.522 109.33 112.522 108.914C112.522 107.696 109.184 108.153 109.184 105.701C109.184 104.469 110.223 103.541 111.677 103.541C112.743 103.541 113.713 104.053 114.211 104.732L113.048 105.757C112.688 105.313 112.231 104.953 111.691 104.953C111.137 104.953 110.874 105.258 110.874 105.618C110.874 106.809 114.211 106.394 114.211 108.804C114.184 110.272 113.006 111.075 111.691 111.075C110.444 111.075 109.558 110.576 108.893 109.787ZM119.066 107.308C119.066 105.272 120.41 103.541 122.612 103.541C123.554 103.541 124.232 103.832 124.772 104.372V100.411H126.545V110.798H124.772V110.244C124.232 110.784 123.554 111.075 122.612 111.075C120.41 111.075 119.066 109.344 119.066 107.308ZM120.908 107.308C120.908 108.527 121.67 109.413 122.861 109.413C123.651 109.413 124.301 109.081 124.772 108.443V106.172C124.301 105.535 123.651 105.203 122.861 105.203C121.67 105.203 120.908 106.089 120.908 107.308ZM131.977 103.541C134.249 103.541 135.8 105.216 135.8 107.308C135.8 109.399 134.249 111.075 131.977 111.075C129.706 111.075 128.155 109.399 128.155 107.308C128.155 105.216 129.706 103.541 131.977 103.541ZM132.005 109.413C133.127 109.413 133.972 108.513 133.972 107.308C133.972 106.089 133.127 105.203 132.005 105.203C130.842 105.203 129.983 106.089 129.983 107.308C129.983 108.527 130.842 109.413 132.005 109.413ZM136.565 109.787L137.729 108.734C138.158 109.274 138.671 109.662 139.335 109.662C139.903 109.662 140.194 109.33 140.194 108.914C140.194 107.696 136.856 108.153 136.856 105.701C136.856 104.469 137.895 103.541 139.349 103.541C140.416 103.541 141.385 104.053 141.884 104.732L140.72 105.757C140.36 105.313 139.903 104.953 139.363 104.953C138.809 104.953 138.546 105.258 138.546 105.618C138.546 106.809 141.884 106.394 141.884 108.804C141.856 110.272 140.679 111.075 139.363 111.075C138.117 111.075 137.23 110.576 136.565 109.787ZM142.8 109.787L143.964 108.734C144.393 109.274 144.905 109.662 145.57 109.662C146.138 109.662 146.429 109.33 146.429 108.914C146.429 107.696 143.091 108.153 143.091 105.701C143.091 104.469 144.13 103.541 145.584 103.541C146.651 103.541 147.62 104.053 148.119 104.732L146.955 105.757C146.595 105.313 146.138 104.953 145.598 104.953C145.044 104.953 144.781 105.258 144.781 105.618C144.781 106.809 148.119 106.394 148.119 108.804C148.091 110.272 146.914 111.075 145.598 111.075C144.351 111.075 143.465 110.576 142.8 109.787ZM150.626 102.599C150.003 102.599 149.477 102.073 149.477 101.449C149.477 100.826 150.003 100.3 150.626 100.3C151.249 100.3 151.762 100.826 151.762 101.449C151.762 102.073 151.249 102.599 150.626 102.599ZM149.74 110.798V103.818H151.499V110.798H149.74ZM160.034 109.662C159.383 110.535 158.303 111.075 156.987 111.075C154.508 111.075 153.109 109.344 153.109 107.308C153.109 105.244 154.411 103.541 156.696 103.541C158.635 103.541 159.909 104.856 159.909 106.685C159.909 107.072 159.854 107.432 159.798 107.668H154.909C155.076 108.97 155.879 109.496 156.973 109.496C157.735 109.496 158.4 109.164 158.773 108.665L160.034 109.662ZM156.654 104.981C155.754 104.981 155.159 105.48 154.965 106.394H158.178C158.15 105.687 157.638 104.981 156.654 104.981ZM161.628 110.798V103.818H163.387V104.51C163.844 104.039 164.439 103.679 165.229 103.679C165.464 103.679 165.672 103.721 165.838 103.776V105.507C165.616 105.452 165.381 105.41 165.062 105.41C164.204 105.41 163.65 105.881 163.387 106.324V110.798H161.628ZM166.645 109.787L167.809 108.734C168.238 109.274 168.75 109.662 169.415 109.662C169.983 109.662 170.274 109.33 170.274 108.914C170.274 107.696 166.936 108.153 166.936 105.701C166.936 104.469 167.975 103.541 169.429 103.541C170.495 103.541 171.465 104.053 171.963 104.732L170.8 105.757C170.44 105.313 169.983 104.953 169.443 104.953C168.889 104.953 168.626 105.258 168.626 105.618C168.626 106.809 171.963 106.394 171.963 108.804C171.936 110.272 170.759 111.075 169.443 111.075C168.196 111.075 167.31 110.576 166.645 109.787Z" fill="#161616"/>
<path d="M543.602 127.481H88.4495V158.328H543.602V127.481Z" stroke="black" stroke-opacity="0.23"/>
<path d="M107.965 144.163H107.468L107.291 143.993C107.908 143.276 108.28 142.344 108.28 141.33C108.28 139.07 106.448 137.238 104.188 137.238C101.928 137.238 100.096 139.07 100.096 141.33C100.096 143.59 101.928 145.422 104.188 145.422C105.201 145.422 106.133 145.051 106.851 144.434L107.021 144.61V145.108L110.168 148.249L111.106 147.311L107.965 144.163ZM104.188 144.163C102.62 144.163 101.355 142.898 101.355 141.33C101.355 139.763 102.62 138.497 104.188 138.497C105.755 138.497 107.021 139.763 107.021 141.33C107.021 142.898 105.755 144.163 104.188 144.163Z" fill="#3A3A3A"/>
<mask id="mask2_70_7807" style="mask-type:luminance" maskUnits="userSpaceOnUse" x="96" y="121" width="54" height="12">
<path d="M149.2 121.5H96.9482V132.202H149.2V121.5Z" fill="white"/>
</mask>
<g mask="url(#mask2_70_7807)">
<path d="M149.2 121.5H96.9482V132.202H149.2V121.5Z" fill="white"/>
<path d="M100.449 129.684V124.396H101.854C102.919 124.396 103.577 124.978 103.577 125.884C103.577 126.519 103.252 126.995 102.685 127.221L104.392 129.684H103.554L102.02 127.357C101.968 127.365 101.907 127.365 101.854 127.365H101.159V129.684H100.449ZM101.884 125H101.159V126.76H101.884C102.489 126.76 102.844 126.436 102.844 125.869C102.844 125.333 102.489 125 101.884 125ZM108.47 129.057C108.115 129.533 107.548 129.835 106.838 129.835C105.554 129.835 104.761 128.891 104.761 127.78C104.761 126.624 105.501 125.725 106.68 125.725C107.715 125.725 108.387 126.451 108.387 127.387C108.387 127.538 108.364 127.682 108.342 127.788H105.418C105.441 128.702 106.022 129.253 106.838 129.253C107.329 129.253 107.745 129.027 107.994 128.687L108.47 129.057ZM106.664 126.269C106.037 126.269 105.599 126.64 105.463 127.297H107.745C107.722 126.738 107.337 126.269 106.664 126.269ZM111.213 129.231C111.681 129.231 112.067 129.004 112.301 128.672L112.807 129.057C112.452 129.533 111.9 129.835 111.205 129.835C109.944 129.835 109.135 128.891 109.135 127.78C109.135 126.67 109.944 125.725 111.205 125.725C111.893 125.725 112.452 126.035 112.807 126.504L112.301 126.889C112.067 126.556 111.681 126.33 111.205 126.33C110.389 126.33 109.808 126.972 109.808 127.78C109.808 128.596 110.389 129.231 111.213 129.231ZM113.688 129.684V124.018H114.33V126.307C114.639 125.967 115.032 125.725 115.599 125.725C116.452 125.725 117.087 126.3 117.087 127.38V129.684H116.445V127.403C116.445 126.723 116.067 126.33 115.47 126.33C114.911 126.33 114.571 126.655 114.33 127.047V129.684H113.688ZM121.764 129.057C121.409 129.533 120.842 129.835 120.132 129.835C118.848 129.835 118.055 128.891 118.055 127.78C118.055 126.624 118.795 125.725 119.973 125.725C121.008 125.725 121.681 126.451 121.681 127.387C121.681 127.538 121.658 127.682 121.635 127.788H118.712C118.735 128.702 119.316 129.253 120.132 129.253C120.623 129.253 121.039 129.027 121.288 128.687L121.764 129.057ZM119.958 126.269C119.331 126.269 118.893 126.64 118.757 127.297H121.039C121.016 126.738 120.631 126.269 119.958 126.269ZM122.769 129.684V125.877H123.411V126.352C123.691 126.02 124.038 125.801 124.522 125.801C124.643 125.801 124.756 125.816 124.847 125.846V126.473C124.733 126.443 124.62 126.428 124.469 126.428C123.97 126.428 123.646 126.685 123.411 127.07V129.684H122.769ZM127.296 129.231C127.764 129.231 128.149 129.004 128.383 128.672L128.89 129.057C128.534 129.533 127.983 129.835 127.288 129.835C126.026 129.835 125.218 128.891 125.218 127.78C125.218 126.67 126.026 125.725 127.288 125.725C127.975 125.725 128.534 126.035 128.89 126.504L128.383 126.889C128.149 126.556 127.764 126.33 127.288 126.33C126.472 126.33 125.89 126.972 125.89 127.78C125.89 128.596 126.472 129.231 127.296 129.231ZM129.77 129.684V124.018H130.412V126.307C130.722 125.967 131.115 125.725 131.682 125.725C132.535 125.725 133.17 126.3 133.17 127.38V129.684H132.528V127.403C132.528 126.723 132.15 126.33 131.553 126.33C130.994 126.33 130.654 126.655 130.412 127.047V129.684H129.77ZM137.847 129.057C137.491 129.533 136.925 129.835 136.215 129.835C134.931 129.835 134.137 128.891 134.137 127.78C134.137 126.624 134.878 125.725 136.056 125.725C137.091 125.725 137.763 126.451 137.763 127.387C137.763 127.538 137.741 127.682 137.718 127.788H134.795C134.817 128.702 135.399 129.253 136.215 129.253C136.706 129.253 137.121 129.027 137.371 128.687L137.847 129.057ZM136.041 126.269C135.414 126.269 134.976 126.64 134.84 127.297H137.121C137.099 126.738 136.713 126.269 136.041 126.269ZM138.851 129.684V125.877H139.493V126.352C139.773 126.02 140.12 125.801 140.604 125.801C140.725 125.801 140.838 125.816 140.929 125.846V126.473C140.815 126.443 140.702 126.428 140.551 126.428C140.052 126.428 139.728 126.685 139.493 127.07V129.684H138.851ZM141.456 129.767C141.184 129.767 140.965 129.556 140.965 129.291C140.965 129.027 141.184 128.808 141.456 128.808C141.728 128.808 141.94 129.027 141.94 129.291C141.94 129.556 141.728 129.767 141.456 129.767ZM143.493 129.767C143.221 129.767 143.002 129.556 143.002 129.291C143.002 129.027 143.221 128.808 143.493 128.808C143.765 128.808 143.976 129.027 143.976 129.291C143.976 129.556 143.765 129.767 143.493 129.767ZM145.529 129.767C145.257 129.767 145.038 129.556 145.038 129.291C145.038 129.027 145.257 128.808 145.529 128.808C145.801 128.808 146.012 129.027 146.012 129.291C146.012 129.556 145.801 129.767 145.529 129.767Z" fill="#3A3A3A"/>
</g>
<path d="M89.4315 198.303V189.49H92.894C95.6891 189.49 97.5777 191.517 97.5777 193.896C97.5777 196.276 95.6891 198.303 92.894 198.303H89.4315ZM92.9191 191.114H91.2194V196.679H92.9191C94.5559 196.679 95.7394 195.458 95.7394 193.896C95.7394 192.323 94.5559 191.114 92.9191 191.114ZM102.147 191.706C104.212 191.706 105.622 193.229 105.622 195.13C105.622 197.031 104.212 198.555 102.147 198.555C100.082 198.555 98.6718 197.031 98.6718 195.13C98.6718 193.229 100.082 191.706 102.147 191.706ZM102.172 197.044C103.192 197.044 103.96 196.226 103.96 195.13C103.96 194.022 103.192 193.216 102.172 193.216C101.114 193.216 100.334 194.022 100.334 195.13C100.334 196.238 101.114 197.044 102.172 197.044ZM106.317 197.384L107.374 196.427C107.765 196.918 108.231 197.271 108.835 197.271C109.351 197.271 109.616 196.968 109.616 196.591C109.616 195.483 106.581 195.898 106.581 193.67C106.581 192.549 107.526 191.706 108.848 191.706C109.817 191.706 110.698 192.171 111.152 192.788L110.094 193.72C109.767 193.317 109.351 192.99 108.86 192.99C108.357 192.99 108.117 193.267 108.117 193.594C108.117 194.677 111.152 194.299 111.152 196.49C111.127 197.825 110.056 198.555 108.86 198.555C107.727 198.555 106.921 198.102 106.317 197.384ZM111.985 197.384L113.043 196.427C113.433 196.918 113.899 197.271 114.503 197.271C115.02 197.271 115.284 196.968 115.284 196.591C115.284 195.483 112.25 195.898 112.25 193.67C112.25 192.549 113.194 191.706 114.516 191.706C115.485 191.706 116.367 192.171 116.82 192.788L115.762 193.72C115.435 193.317 115.02 192.99 114.529 192.99C114.025 192.99 113.786 193.267 113.786 193.594C113.786 194.677 116.82 194.299 116.82 196.49C116.795 197.825 115.725 198.555 114.529 198.555C113.395 198.555 112.59 198.102 111.985 197.384ZM119.1 190.849C118.533 190.849 118.055 190.371 118.055 189.804C118.055 189.238 118.533 188.759 119.1 188.759C119.666 188.759 120.132 189.238 120.132 189.804C120.132 190.371 119.666 190.849 119.1 190.849ZM118.294 198.303V191.957H119.893V198.303H118.294ZM127.652 197.271C127.061 198.064 126.079 198.555 124.882 198.555C122.629 198.555 121.357 196.981 121.357 195.13C121.357 193.254 122.541 191.706 124.618 191.706C126.381 191.706 127.539 192.902 127.539 194.564C127.539 194.916 127.489 195.244 127.438 195.458H122.994C123.145 196.641 123.875 197.12 124.87 197.12C125.562 197.12 126.167 196.817 126.507 196.364L127.652 197.271ZM124.58 193.015C123.762 193.015 123.22 193.468 123.044 194.299H125.965C125.94 193.657 125.474 193.015 124.58 193.015ZM129.102 198.303V191.957H130.701V192.587C131.116 192.159 131.657 191.831 132.375 191.831C132.589 191.831 132.778 191.869 132.929 191.92V193.493C132.728 193.443 132.514 193.405 132.224 193.405C131.443 193.405 130.94 193.833 130.701 194.236V198.303H129.102ZM133.663 197.384L134.72 196.427C135.11 196.918 135.576 197.271 136.181 197.271C136.697 197.271 136.961 196.968 136.961 196.591C136.961 195.483 133.927 195.898 133.927 193.67C133.927 192.549 134.871 191.706 136.193 191.706C137.163 191.706 138.044 192.171 138.497 192.788L137.44 193.72C137.112 193.317 136.697 192.99 136.206 192.99C135.702 192.99 135.463 193.267 135.463 193.594C135.463 194.677 138.497 194.299 138.497 196.49C138.472 197.825 137.402 198.555 136.206 198.555C135.073 198.555 134.267 198.102 133.663 197.384ZM146.386 191.706C148.451 191.706 149.861 193.229 149.861 195.13C149.861 197.031 148.451 198.555 146.386 198.555C144.321 198.555 142.911 197.031 142.911 195.13C142.911 193.229 144.321 191.706 146.386 191.706ZM146.411 197.044C147.431 197.044 148.199 196.226 148.199 195.13C148.199 194.022 147.431 193.216 146.411 193.216C145.354 193.216 144.573 194.022 144.573 195.13C144.573 196.238 145.354 197.044 146.411 197.044ZM155.5 195.558V191.957H157.111V195.483C157.111 197.384 156.003 198.555 154.14 198.555C152.277 198.555 151.181 197.384 151.181 195.483V191.957H152.793V195.558C152.793 196.477 153.271 197.044 154.153 197.044C155.021 197.044 155.5 196.477 155.5 195.558ZM158.073 191.957H159.786L161.435 196.49L163.072 191.957H164.797L162.48 198.303H160.377L158.073 191.957ZM171.572 197.271C170.98 198.064 169.998 198.555 168.802 198.555C166.548 198.555 165.276 196.981 165.276 195.13C165.276 193.254 166.46 191.706 168.537 191.706C170.3 191.706 171.458 192.902 171.458 194.564C171.458 194.916 171.408 195.244 171.358 195.458H166.913C167.064 196.641 167.795 197.12 168.789 197.12C169.482 197.12 170.086 196.817 170.426 196.364L171.572 197.271ZM168.5 193.015C167.681 193.015 167.14 193.468 166.964 194.299H169.885C169.859 193.657 169.394 193.015 168.5 193.015ZM173.021 198.303V191.957H174.62V192.587C175.036 192.159 175.577 191.831 176.295 191.831C176.509 191.831 176.697 191.869 176.849 191.92V193.493C176.647 193.443 176.433 193.405 176.143 193.405C175.363 193.405 174.859 193.833 174.62 194.236V198.303H173.021ZM178.957 195.986V193.393H177.773V191.957H178.957V190.371H180.568V191.957H182.507V193.393H180.568V195.986C180.568 196.692 180.946 196.968 181.576 196.968C182.016 196.968 182.306 196.918 182.52 196.83V198.228C182.205 198.366 181.828 198.429 181.299 198.429C179.712 198.429 178.957 197.535 178.957 195.986ZM183.386 197.384L184.443 196.427C184.834 196.918 185.299 197.271 185.904 197.271C186.42 197.271 186.684 196.968 186.684 196.591C186.684 195.483 183.65 195.898 183.65 193.67C183.65 192.549 184.594 191.706 185.916 191.706C186.886 191.706 187.767 192.171 188.22 192.788L187.163 193.72C186.835 193.317 186.42 192.99 185.929 192.99C185.425 192.99 185.186 193.267 185.186 193.594C185.186 194.677 188.22 194.299 188.22 196.49C188.195 197.825 187.125 198.555 185.929 198.555C184.796 198.555 183.99 198.102 183.386 197.384Z" fill="#161616"/>
<path d="M377.405 211.838H88.4495V310.675H377.405V211.838Z" fill="white"/>
<path d="M361.352 227.891C362.045 227.891 362.611 227.325 362.611 226.632C362.611 225.94 362.045 225.373 361.352 225.373C360.66 225.373 360.093 225.94 360.093 226.632C360.093 227.325 360.66 227.891 361.352 227.891ZM361.352 229.15C360.66 229.15 360.093 229.717 360.093 230.409C360.093 231.102 360.66 231.668 361.352 231.668C362.045 231.668 362.611 231.102 362.611 230.409C362.611 229.717 362.045 229.15 361.352 229.15ZM361.352 232.927C360.66 232.927 360.093 233.494 360.093 234.187C360.093 234.879 360.66 235.446 361.352 235.446C362.045 235.446 362.611 234.879 362.611 234.187C362.611 233.494 362.045 232.927 361.352 232.927Z" fill="#3A3A3A"/>
<path d="M99.0446 237.019L102.715 227.325H105.291L108.961 237.019H106.87L105.942 234.499H102.064L101.136 237.019H99.0446ZM102.673 232.823H105.332L104.003 229.18L102.673 232.823ZM109.53 238.238C109.53 237.546 109.876 236.992 110.5 236.535C110.223 236.258 110.07 235.884 110.07 235.524C110.07 234.97 110.306 234.526 110.832 234.139C110.223 233.682 109.89 232.989 109.89 232.214C109.89 230.856 110.943 229.762 112.688 229.762C113.228 229.762 113.699 229.859 114.1 230.039H116.649V231.535H115.416C115.485 231.757 115.513 231.978 115.513 232.214C115.513 233.585 114.488 234.693 112.688 234.693C112.452 234.693 112.231 234.679 112.023 234.637C111.871 234.776 111.788 234.928 111.788 235.08C111.788 235.357 111.94 235.496 112.258 235.496H114.017C115.776 235.496 116.732 236.438 116.732 237.74C116.732 239.291 115.25 240.482 113.076 240.482C110.846 240.482 109.53 239.706 109.53 238.238ZM112.716 233.363C113.45 233.363 113.92 232.906 113.92 232.214C113.92 231.521 113.45 231.078 112.716 231.078C111.954 231.078 111.497 231.535 111.497 232.214C111.497 232.906 111.954 233.363 112.716 233.363ZM111.192 237.989C111.192 238.654 111.829 239.069 113.062 239.069C114.336 239.069 114.987 238.598 114.987 237.906C114.987 237.38 114.668 237.006 113.823 237.006H111.663C111.4 237.255 111.192 237.56 111.192 237.989ZM119.655 237.227C118.256 237.227 117.3 236.424 117.3 235.136C117.3 234.083 118.118 233.294 119.613 233.045L121.746 232.684V232.504C121.746 231.77 121.192 231.299 120.389 231.299C119.71 231.299 119.184 231.618 118.81 232.13L117.522 231.147C118.145 230.288 119.17 229.762 120.444 229.762C122.466 229.762 123.505 230.967 123.505 232.504V237.019H121.746V236.341C121.303 236.881 120.472 237.227 119.655 237.227ZM119.045 235.053C119.045 235.524 119.419 235.828 120.015 235.828C120.818 235.828 121.4 235.454 121.746 234.9V233.917L120.084 234.194C119.35 234.319 119.045 234.623 119.045 235.053ZM125.963 234.471V231.618H124.661V230.039H125.963V228.294H127.736V230.039H129.868V231.618H127.736V234.471C127.736 235.247 128.151 235.551 128.844 235.551C129.328 235.551 129.647 235.496 129.882 235.399V236.936C129.536 237.089 129.121 237.158 128.539 237.158C126.794 237.158 125.963 236.175 125.963 234.471ZM131.444 237.019V226.632H133.202V230.593C133.687 230.122 134.338 229.762 135.266 229.762C136.776 229.762 137.981 230.801 137.981 232.864V237.019H136.208V232.934C136.208 232.006 135.695 231.424 134.823 231.424C133.936 231.424 133.466 232.02 133.202 232.463V237.019H131.444ZM143.302 229.762C145.573 229.762 147.125 231.438 147.125 233.529C147.125 235.621 145.573 237.296 143.302 237.296C141.031 237.296 139.479 235.621 139.479 233.529C139.479 231.438 141.031 229.762 143.302 229.762ZM143.33 235.634C144.452 235.634 145.296 234.734 145.296 233.529C145.296 232.311 144.452 231.424 143.33 231.424C142.166 231.424 141.308 232.311 141.308 233.529C141.308 234.748 142.166 235.634 143.33 235.634ZM148.729 237.019V230.039H150.488V230.593C150.972 230.122 151.623 229.762 152.551 229.762C154.061 229.762 155.266 230.801 155.266 232.864V237.019H153.493V232.934C153.493 232.006 152.967 231.424 152.108 231.424C151.222 231.424 150.751 232.02 150.488 232.463V237.019H148.729Z" fill="#161616"/>
<path d="M161.372 237.019V227.325H164.336C166.469 227.325 167.785 228.419 167.785 230.219C167.785 231.396 167.217 232.269 166.22 232.726L169.253 237.019H166.94L164.35 233.1H163.339V237.019H161.372ZM164.447 228.959H163.339V231.466H164.447C165.278 231.466 165.763 230.981 165.763 230.192C165.763 229.457 165.278 228.959 164.447 228.959ZM176.662 235.884C176.011 236.756 174.931 237.296 173.615 237.296C171.136 237.296 169.737 235.565 169.737 233.529C169.737 231.466 171.039 229.762 173.325 229.762C175.263 229.762 176.538 231.078 176.538 232.906C176.538 233.294 176.482 233.654 176.427 233.889H171.538C171.704 235.191 172.507 235.718 173.602 235.718C174.363 235.718 175.028 235.385 175.402 234.887L176.662 235.884ZM173.283 231.203C172.383 231.203 171.787 231.701 171.593 232.615H174.806C174.779 231.909 174.266 231.203 173.283 231.203ZM178.256 237.019V230.039H180.015V230.565C180.486 230.108 181.082 229.762 181.94 229.762C182.827 229.762 183.602 230.15 184.059 230.898C184.558 230.288 185.223 229.762 186.4 229.762C187.84 229.762 188.976 230.759 188.976 232.726V237.019H187.203V232.795C187.203 231.95 186.746 231.424 185.957 231.424C185.195 231.424 184.78 231.95 184.503 232.421C184.516 232.518 184.516 232.615 184.516 232.726V237.019H182.744V232.795C182.744 231.95 182.287 231.424 181.497 231.424C180.694 231.424 180.278 232.02 180.015 232.463V237.019H178.256ZM194.046 238.612C193.562 239.762 192.772 240.482 191.442 240.482C190.902 240.482 190.528 240.399 190.196 240.26V238.709C190.418 238.806 190.75 238.875 191.055 238.875C191.747 238.875 192.177 238.64 192.467 237.934L192.855 237.006L189.919 230.039H191.872L193.783 234.734L195.708 230.039H197.564L194.046 238.612Z" fill="#161616"/>
<path d="M99.9548 253.073V246.022H102.664C104.87 246.022 106.371 247.643 106.371 249.547C106.371 251.451 104.87 253.073 102.664 253.073H99.9548ZM102.684 246.888H100.902V252.206H102.684C104.256 252.206 105.394 251.018 105.394 249.547C105.394 248.066 104.256 246.888 102.684 246.888ZM110.175 247.795C111.807 247.795 112.925 249.054 112.925 250.534C112.925 252.015 111.807 253.274 110.175 253.274C108.533 253.274 107.426 252.015 107.426 250.534C107.426 249.054 108.533 247.795 110.175 247.795ZM110.185 252.468C111.243 252.468 112.019 251.582 112.019 250.534C112.019 249.477 111.243 248.6 110.185 248.6C109.098 248.6 108.322 249.477 108.322 250.534C108.322 251.592 109.098 252.468 110.185 252.468ZM113.619 252.378L114.224 251.864C114.576 252.307 114.999 252.559 115.513 252.559C116.077 252.559 116.4 252.216 116.4 251.773C116.4 250.635 113.861 251.038 113.861 249.245C113.861 248.449 114.536 247.795 115.513 247.795C116.238 247.795 116.863 248.137 117.215 248.631L116.621 249.134C116.349 248.751 115.966 248.51 115.523 248.51C114.979 248.51 114.687 248.832 114.687 249.225C114.687 250.363 117.236 250 117.236 251.733C117.225 252.68 116.47 253.274 115.523 253.274C114.717 253.274 114.083 252.952 113.619 252.378ZM118.046 252.378L118.651 251.864C119.003 252.307 119.426 252.559 119.94 252.559C120.504 252.559 120.826 252.216 120.826 251.773C120.826 250.635 118.288 251.038 118.288 249.245C118.288 248.449 118.963 247.795 119.94 247.795C120.665 247.795 121.29 248.137 121.642 248.631L121.048 249.134C120.776 248.751 120.393 248.51 119.95 248.51C119.406 248.51 119.114 248.832 119.114 249.225C119.114 250.363 121.662 250 121.662 251.733C121.652 252.68 120.897 253.274 119.95 253.274C119.144 253.274 118.51 252.952 118.046 252.378ZM123.489 246.676C123.156 246.676 122.884 246.405 122.884 246.072C122.884 245.75 123.156 245.478 123.489 245.478C123.821 245.478 124.083 245.75 124.083 246.072C124.083 246.405 123.821 246.676 123.489 246.676ZM123.056 253.073V247.996H123.912V253.073H123.056ZM130.234 252.237C129.761 252.871 129.005 253.274 128.058 253.274C126.346 253.274 125.289 252.015 125.289 250.534C125.289 248.993 126.276 247.795 127.847 247.795C129.227 247.795 130.123 248.761 130.123 250.01C130.123 250.212 130.093 250.403 130.063 250.544H126.165C126.195 251.763 126.971 252.498 128.058 252.498C128.713 252.498 129.267 252.196 129.6 251.743L130.234 252.237ZM127.827 248.52C126.991 248.52 126.407 249.013 126.225 249.89H129.267C129.237 249.144 128.723 248.52 127.827 248.52ZM131.574 253.073V247.996H132.431V248.631C132.803 248.187 133.267 247.895 133.911 247.895C134.072 247.895 134.223 247.915 134.344 247.956V248.792C134.193 248.751 134.042 248.731 133.841 248.731C133.176 248.731 132.743 249.074 132.431 249.587V253.073H131.574ZM138.292 253.073V247.996H139.148V248.57C139.561 248.117 140.085 247.795 140.841 247.795C141.979 247.795 142.825 248.56 142.825 250V253.073H141.969V250.031C141.969 249.124 141.455 248.6 140.669 248.6C139.934 248.6 139.471 249.023 139.148 249.557V253.073H138.292ZM145.313 245.82C146.321 245.82 147.006 246.586 147.006 247.502C147.006 248.419 146.321 249.185 145.313 249.185C144.296 249.185 143.611 248.419 143.611 247.502C143.611 246.586 144.296 245.82 145.313 245.82ZM145.313 248.58C145.898 248.58 146.331 248.097 146.331 247.502C146.331 246.898 145.898 246.425 145.313 246.425C144.709 246.425 144.286 246.898 144.286 247.502C144.286 248.107 144.709 248.58 145.313 248.58Z" fill="#161616"/>
<path d="M149.95 253.073V246.938L148.087 247.946L147.623 247.301L149.94 246.022H150.846V253.073H149.95ZM157.479 251.129C157.479 252.408 156.441 253.274 155.021 253.274C153.802 253.274 152.996 252.78 152.432 251.844L153.228 251.35C153.661 252.126 154.225 252.458 155.011 252.458C155.887 252.458 156.542 251.944 156.542 251.088C156.542 250.293 155.978 249.739 155.051 249.739H153.852V248.923H154.91C155.716 248.923 156.23 248.439 156.23 247.754C156.23 247.039 155.696 246.636 154.97 246.636C154.336 246.636 153.842 246.959 153.51 247.573L152.754 247.11C153.258 246.284 154.003 245.82 155.031 245.82C156.25 245.82 157.156 246.556 157.156 247.674C157.156 248.359 156.834 248.943 156.23 249.275C157.045 249.608 157.479 250.313 157.479 251.129ZM158.547 253.073V252.257L160.934 249.799C161.76 248.933 162.133 248.54 162.133 247.795C162.133 247.059 161.599 246.636 160.884 246.636C160.138 246.636 159.655 247.009 159.242 247.694L158.496 247.241C159.071 246.344 159.856 245.82 160.954 245.82C162.133 245.82 163.069 246.586 163.069 247.734C163.069 248.691 162.445 249.406 161.599 250.293L159.665 252.257H163.261V253.073H158.547Z" fill="#161616"/>
<path d="M181.526 248.666C181.526 245.189 178.707 242.37 175.231 242.37C171.754 242.37 168.935 245.189 168.935 248.666C168.935 252.143 171.754 254.961 175.231 254.961C178.707 254.961 181.526 252.143 181.526 248.666Z" fill="#CE0500"/>
<path d="M173.196 251.813V251.066L174.994 249.245C175.523 248.701 175.795 248.406 175.795 247.908C175.795 247.402 175.432 247.115 174.949 247.115C174.412 247.115 174.072 247.409 173.778 247.9L173.098 247.485C173.536 246.797 174.156 246.374 175.024 246.374C175.923 246.374 176.641 246.956 176.641 247.84C176.641 248.558 176.173 249.101 175.583 249.698L174.201 251.066H176.784V251.813H173.196Z" fill="white"/>
<path d="M99.1088 270.699L101.919 263.649H103.188L105.998 270.699H104.991L104.175 268.625H100.932L100.116 270.699H99.1088ZM101.244 267.809H103.863L102.554 264.475L101.244 267.809ZM106.139 265.623H107.065L108.687 269.803L110.309 265.623H111.235L109.251 270.699H108.123L106.139 265.623ZM113.567 270.841C112.569 270.841 111.895 270.287 111.895 269.42C111.895 268.655 112.479 268.111 113.557 267.93L115.269 267.648V267.295C115.269 266.59 114.765 266.187 114.04 266.187C113.456 266.187 112.982 266.459 112.67 266.892L112.026 266.399C112.469 265.794 113.184 265.421 114.07 265.421C115.36 265.421 116.125 266.177 116.125 267.295V270.699H115.269V270.055C114.886 270.548 114.221 270.841 113.567 270.841ZM112.761 269.39C112.761 269.823 113.113 270.135 113.708 270.135C114.383 270.135 114.936 269.813 115.269 269.269V268.272L113.768 268.524C113.073 268.645 112.761 268.957 112.761 269.39ZM117.842 270.699V265.623H118.699V266.197C119.112 265.744 119.635 265.421 120.391 265.421C121.529 265.421 122.375 266.187 122.375 267.627V270.699H121.519V267.658C121.519 266.751 121.005 266.227 120.22 266.227C119.484 266.227 119.021 266.65 118.699 267.184V270.699H117.842ZM126.436 270.095C127.06 270.095 127.574 269.793 127.886 269.35L128.561 269.863C128.087 270.498 127.352 270.901 126.425 270.901C124.743 270.901 123.666 269.642 123.666 268.161C123.666 266.681 124.743 265.421 126.425 265.421C127.342 265.421 128.087 265.834 128.561 266.459L127.886 266.973C127.574 266.529 127.06 266.227 126.425 266.227C125.338 266.227 124.562 267.083 124.562 268.161C124.562 269.249 125.338 270.095 126.436 270.095ZM134.05 269.863C133.577 270.498 132.822 270.901 131.875 270.901C130.162 270.901 129.105 269.642 129.105 268.161C129.105 266.62 130.092 265.421 131.663 265.421C133.043 265.421 133.94 266.388 133.94 267.637C133.94 267.839 133.909 268.03 133.879 268.171H129.981C130.011 269.39 130.787 270.125 131.875 270.125C132.529 270.125 133.083 269.823 133.416 269.37L134.05 269.863ZM131.643 266.147C130.807 266.147 130.223 266.64 130.042 267.517H133.083C133.053 266.771 132.54 266.147 131.643 266.147ZM135.391 270.699V265.623H136.247V266.177C136.63 265.734 137.133 265.421 137.838 265.421C138.574 265.421 139.178 265.754 139.49 266.399C139.893 265.845 140.427 265.421 141.303 265.421C142.391 265.421 143.187 266.147 143.187 267.527V270.699H142.331V267.557C142.331 266.711 141.857 266.227 141.132 266.227C140.487 266.227 140.034 266.59 139.702 267.184C139.712 267.295 139.722 267.406 139.722 267.527V270.699H138.866V267.557C138.866 266.711 138.402 266.227 137.667 266.227C136.972 266.227 136.539 266.66 136.247 267.184V270.699H135.391ZM149.425 269.863C148.951 270.498 148.196 270.901 147.249 270.901C145.537 270.901 144.479 269.642 144.479 268.161C144.479 266.62 145.466 265.421 147.038 265.421C148.418 265.421 149.314 266.388 149.314 267.637C149.314 267.839 149.284 268.03 149.254 268.171H145.356C145.386 269.39 146.161 270.125 147.249 270.125C147.904 270.125 148.458 269.823 148.79 269.37L149.425 269.863ZM147.018 266.147C146.182 266.147 145.597 266.64 145.416 267.517H148.458C148.428 266.771 147.914 266.147 147.018 266.147ZM150.765 270.699V265.623H151.621V266.197C152.034 265.744 152.558 265.421 153.314 265.421C154.452 265.421 155.298 266.187 155.298 267.627V270.699H154.442V267.658C154.442 266.751 153.928 266.227 153.142 266.227C152.407 266.227 151.944 266.65 151.621 267.184V270.699H150.765ZM157.313 268.997V266.399H156.356V265.623H157.313V264.354H158.179V265.623H159.942V266.399H158.179V268.997C158.179 269.793 158.582 270.015 159.196 270.015C159.529 270.015 159.761 269.974 159.952 269.894V270.659C159.71 270.76 159.438 270.8 159.076 270.8C157.948 270.8 157.313 270.236 157.313 268.997ZM163.533 268.161C163.533 266.681 164.55 265.421 166.142 265.421C166.897 265.421 167.491 265.714 167.944 266.227V263.145H168.801V270.699H167.944V270.095C167.491 270.609 166.897 270.901 166.142 270.901C164.55 270.901 163.533 269.642 163.533 268.161ZM164.439 268.161C164.439 269.239 165.164 270.095 166.242 270.095C166.947 270.095 167.572 269.753 167.944 269.158V267.164C167.552 266.56 166.937 266.227 166.242 266.227C165.164 266.227 164.439 267.083 164.439 268.161ZM174.141 268.524V265.623H174.997V268.494C174.997 270.015 174.121 270.901 172.741 270.901C171.371 270.901 170.495 270.015 170.495 268.494V265.623H171.351V268.524C171.351 269.521 171.885 270.095 172.751 270.095C173.597 270.095 174.141 269.521 174.141 268.524ZM178.966 268.161C178.966 266.681 179.983 265.421 181.575 265.421C182.33 265.421 182.924 265.714 183.378 266.227V263.145H184.234V270.699H183.378V270.095C182.924 270.609 182.33 270.901 181.575 270.901C179.983 270.901 178.966 269.642 178.966 268.161ZM179.872 268.161C179.872 269.239 180.597 270.095 181.675 270.095C182.38 270.095 183.005 269.753 183.378 269.158V267.164C182.985 266.56 182.37 266.227 181.675 266.227C180.597 266.227 179.872 267.083 179.872 268.161ZM188.355 265.421C189.987 265.421 191.105 266.681 191.105 268.161C191.105 269.642 189.987 270.901 188.355 270.901C186.713 270.901 185.605 269.642 185.605 268.161C185.605 266.681 186.713 265.421 188.355 265.421ZM188.365 270.095C189.423 270.095 190.199 269.209 190.199 268.161C190.199 267.104 189.423 266.227 188.365 266.227C187.277 266.227 186.502 267.104 186.502 268.161C186.502 269.219 187.277 270.095 188.365 270.095ZM191.8 270.004L192.404 269.491C192.757 269.934 193.18 270.186 193.694 270.186C194.258 270.186 194.58 269.843 194.58 269.4C194.58 268.262 192.042 268.665 192.042 266.872C192.042 266.076 192.717 265.421 193.694 265.421C194.419 265.421 195.043 265.764 195.396 266.257L194.802 266.761C194.53 266.378 194.147 266.137 193.704 266.137C193.16 266.137 192.868 266.459 192.868 266.852C192.868 267.99 195.416 267.627 195.416 269.36C195.406 270.307 194.651 270.901 193.704 270.901C192.898 270.901 192.263 270.579 191.8 270.004ZM196.226 270.004L196.831 269.491C197.183 269.934 197.606 270.186 198.12 270.186C198.684 270.186 199.006 269.843 199.006 269.4C199.006 268.262 196.468 268.665 196.468 266.872C196.468 266.076 197.143 265.421 198.12 265.421C198.845 265.421 199.47 265.764 199.822 266.257L199.228 266.761C198.956 266.378 198.573 266.137 198.13 266.137C197.586 266.137 197.294 266.459 197.294 266.852C197.294 267.99 199.842 267.627 199.842 269.36C199.832 270.307 199.077 270.901 198.13 270.901C197.324 270.901 196.69 270.579 196.226 270.004ZM201.669 264.303C201.337 264.303 201.065 264.031 201.065 263.699C201.065 263.377 201.337 263.105 201.669 263.105C202.002 263.105 202.264 263.377 202.264 263.699C202.264 264.031 202.002 264.303 201.669 264.303ZM201.236 270.699V265.623H202.092V270.699H201.236ZM208.414 269.863C207.941 270.498 207.185 270.901 206.238 270.901C204.526 270.901 203.468 269.642 203.468 268.161C203.468 266.62 204.456 265.421 206.027 265.421C207.407 265.421 208.303 266.388 208.303 267.637C208.303 267.839 208.273 268.03 208.243 268.171H204.345C204.375 269.39 205.151 270.125 206.238 270.125C206.893 270.125 207.447 269.823 207.78 269.37L208.414 269.863ZM206.007 266.147C205.171 266.147 204.587 266.64 204.405 267.517H207.447C207.417 266.771 206.903 266.147 206.007 266.147ZM209.754 270.699V265.623H210.611V266.257C210.983 265.814 211.447 265.522 212.091 265.522C212.252 265.522 212.403 265.542 212.524 265.583V266.419C212.373 266.378 212.222 266.358 212.021 266.358C211.356 266.358 210.923 266.701 210.611 267.214V270.699H209.754ZM216.936 266.791C216.573 266.791 216.281 266.499 216.281 266.147C216.281 265.794 216.573 265.512 216.936 265.512C217.299 265.512 217.581 265.794 217.581 266.147C217.581 266.499 217.299 266.791 216.936 266.791ZM216.936 270.81C216.573 270.81 216.281 270.528 216.281 270.176C216.281 269.823 216.573 269.531 216.936 269.531C217.299 269.531 217.581 269.823 217.581 270.176C217.581 270.528 217.299 270.81 216.936 270.81Z" fill="#161616"/>
<path d="M151.233 275.106H108.909C103.346 275.106 98.8368 279.616 98.8368 285.179C98.8368 290.742 103.346 295.251 108.909 295.251H151.233C156.796 295.251 161.305 290.742 161.305 285.179C161.305 279.616 156.796 275.106 151.233 275.106Z" fill="#FCEEAC"/>
<path d="M117.093 285.179C117.093 281.007 113.711 277.624 109.539 277.624C105.367 277.624 101.984 281.007 101.984 285.179C101.984 289.351 105.367 292.733 109.539 292.733C113.711 292.733 117.093 289.351 117.093 285.179Z" fill="#E8D45C"/>
<path d="M109.585 288.326V283.726L108.188 284.481L107.84 283.998L109.578 283.038H110.258V288.326H109.585Z" fill="#616161"/>
<path d="M123.555 282.343L122.507 281.238H123.342L124.267 282.343H123.555ZM121.091 288.563L123.375 282.834H124.406L126.689 288.563H125.871L125.208 286.877H122.573L121.91 288.563H121.091ZM122.826 286.214H124.954L123.89 283.505L122.826 286.214ZM130.093 287.179V285.068H129.315V284.438H130.093V283.407H130.796V284.438H132.229V285.068H130.796V287.179C130.796 287.826 131.124 288.006 131.623 288.006C131.893 288.006 132.081 287.973 132.237 287.908V288.53C132.04 288.612 131.819 288.644 131.525 288.644C130.608 288.644 130.093 288.186 130.093 287.179ZM133.292 288.563V284.438H133.987V284.953C134.29 284.593 134.667 284.356 135.19 284.356C135.321 284.356 135.444 284.372 135.542 284.405V285.084C135.42 285.052 135.297 285.035 135.133 285.035C134.593 285.035 134.241 285.314 133.987 285.731V288.563H133.292ZM137.482 288.677C136.672 288.677 136.123 288.227 136.123 287.523C136.123 286.901 136.598 286.459 137.474 286.312L138.865 286.083V285.796C138.865 285.223 138.456 284.896 137.867 284.896C137.392 284.896 137.007 285.117 136.754 285.469L136.23 285.068C136.59 284.577 137.171 284.274 137.891 284.274C138.939 284.274 139.561 284.888 139.561 285.796V288.563H138.865V288.039C138.554 288.44 138.014 288.677 137.482 288.677ZM136.827 287.499C136.827 287.851 137.114 288.104 137.597 288.104C138.145 288.104 138.595 287.842 138.865 287.4V286.59L137.646 286.795C137.081 286.893 136.827 287.147 136.827 287.499ZM141.308 283.366C141.038 283.366 140.817 283.145 140.817 282.875C140.817 282.613 141.038 282.392 141.308 282.392C141.578 282.392 141.791 282.613 141.791 282.875C141.791 283.145 141.578 283.366 141.308 283.366ZM140.956 288.563V284.438H141.651V288.563H140.956ZM143.359 287.179V285.068H142.582V284.438H143.359V283.407H144.063V284.438H145.495V285.068H144.063V287.179C144.063 287.826 144.39 288.006 144.89 288.006C145.16 288.006 145.348 287.973 145.503 287.908V288.53C145.307 288.612 145.086 288.644 144.791 288.644C143.875 288.644 143.359 288.186 143.359 287.179ZM150.145 287.883C149.76 288.399 149.147 288.726 148.377 288.726C146.986 288.726 146.127 287.703 146.127 286.5C146.127 285.248 146.929 284.274 148.205 284.274C149.327 284.274 150.055 285.06 150.055 286.075C150.055 286.238 150.03 286.394 150.006 286.508H146.839C146.863 287.499 147.493 288.096 148.377 288.096C148.909 288.096 149.359 287.851 149.629 287.482L150.145 287.883ZM148.189 284.863C147.51 284.863 147.035 285.264 146.888 285.976H149.359C149.335 285.371 148.917 284.863 148.189 284.863ZM151.234 288.563V284.438H151.93V284.953C152.233 284.593 152.609 284.356 153.133 284.356C153.264 284.356 153.387 284.372 153.485 284.405V285.084C153.362 285.052 153.239 285.035 153.076 285.035C152.535 285.035 152.183 285.314 151.93 285.731V288.563H151.234Z" fill="#161616"/>
<path d="M377.405 211.838H88.4495V310.675H377.405V211.838Z" stroke="#DDDDDD"/>
<path d="M677.064 211.838H388.108V310.675H677.064V211.838Z" fill="white"/>
<path d="M398.703 237.019L402.373 227.325H404.949L408.619 237.019H406.528L405.6 234.499H401.722L400.794 237.019H398.703ZM402.331 232.823H404.99L403.661 229.18L402.331 232.823ZM410.3 237.019V230.039H412.059V230.565C412.53 230.108 413.125 229.762 413.984 229.762C414.87 229.762 415.646 230.15 416.103 230.898C416.602 230.288 417.266 229.762 418.444 229.762C419.884 229.762 421.02 230.759 421.02 232.726V237.019H419.247V232.795C419.247 231.95 418.79 231.424 418 231.424C417.239 231.424 416.823 231.95 416.546 232.421C416.56 232.518 416.56 232.615 416.56 232.726V237.019H414.787V232.795C414.787 231.95 414.33 231.424 413.541 231.424C412.737 231.424 412.322 232.02 412.059 232.463V237.019H410.3ZM424.994 237.227C423.595 237.227 422.639 236.424 422.639 235.136C422.639 234.083 423.457 233.294 424.952 233.045L427.085 232.684V232.504C427.085 231.77 426.531 231.299 425.728 231.299C425.049 231.299 424.523 231.618 424.149 232.13L422.861 231.147C423.484 230.288 424.509 229.762 425.783 229.762C427.805 229.762 428.844 230.967 428.844 232.504V237.019H427.085V236.341C426.642 236.881 425.811 237.227 424.994 237.227ZM424.384 235.053C424.384 235.524 424.758 235.828 425.354 235.828C426.157 235.828 426.739 235.454 427.085 234.9V233.917L425.423 234.194C424.689 234.319 424.384 234.623 424.384 235.053ZM430.858 237.019V226.632H432.617V237.019H430.858ZM435.613 228.82C434.99 228.82 434.463 228.294 434.463 227.671C434.463 227.048 434.99 226.521 435.613 226.521C436.236 226.521 436.749 227.048 436.749 227.671C436.749 228.294 436.236 228.82 435.613 228.82ZM434.726 237.019V230.039H436.485V237.019H434.726ZM440.561 237.227C439.162 237.227 438.206 236.424 438.206 235.136C438.206 234.083 439.024 233.294 440.519 233.045L442.652 232.684V232.504C442.652 231.77 442.098 231.299 441.295 231.299C440.616 231.299 440.09 231.618 439.716 232.13L438.428 231.147C439.051 230.288 440.076 229.762 441.35 229.762C443.372 229.762 444.411 230.967 444.411 232.504V237.019H442.652V236.341C442.209 236.881 441.378 237.227 440.561 237.227ZM439.952 235.053C439.952 235.524 440.326 235.828 440.921 235.828C441.724 235.828 442.306 235.454 442.652 234.9V233.917L440.99 234.194C440.256 234.319 439.952 234.623 439.952 235.053ZM446.426 237.019V230.039H448.185V230.593C448.669 230.122 449.32 229.762 450.248 229.762C451.758 229.762 452.963 230.801 452.963 232.865V237.019H451.19V232.934C451.19 232.006 450.664 231.424 449.805 231.424C448.919 231.424 448.448 232.02 448.185 232.463V237.019H446.426ZM461.386 235.884C460.735 236.756 459.655 237.296 458.339 237.296C455.86 237.296 454.461 235.565 454.461 233.529C454.461 231.466 455.763 229.762 458.048 229.762C459.987 229.762 461.261 231.078 461.261 232.906C461.261 233.294 461.206 233.654 461.15 233.889H456.262C456.428 235.191 457.231 235.718 458.325 235.718C459.087 235.718 459.752 235.385 460.126 234.887L461.386 235.884ZM458.007 231.203C457.106 231.203 456.511 231.701 456.317 232.615H459.53C459.502 231.909 458.99 231.203 458.007 231.203Z" fill="#161616"/>
<path d="M466.696 237.019V227.325H469.66C471.793 227.325 473.108 228.419 473.108 230.219C473.108 231.396 472.541 232.269 471.543 232.726L474.577 237.019H472.264L469.674 233.1H468.663V237.019H466.696ZM469.771 228.959H468.663V231.466H469.771C470.602 231.466 471.086 230.981 471.086 230.192C471.086 229.457 470.602 228.959 469.771 228.959ZM481.986 235.884C481.335 236.756 480.255 237.296 478.939 237.296C476.46 237.296 475.061 235.565 475.061 233.529C475.061 231.466 476.363 229.762 478.648 229.762C480.587 229.762 481.862 231.078 481.862 232.906C481.862 233.294 481.806 233.654 481.751 233.889H476.862C477.028 235.191 477.831 235.718 478.925 235.718C479.687 235.718 480.352 235.385 480.726 234.887L481.986 235.884ZM478.607 231.203C477.707 231.203 477.111 231.701 476.917 232.615H480.13C480.103 231.909 479.59 231.203 478.607 231.203ZM483.58 237.019V230.039H485.339V230.565C485.81 230.108 486.405 229.762 487.264 229.762C488.151 229.762 488.926 230.15 489.383 230.898C489.882 230.288 490.547 229.762 491.724 229.762C493.164 229.762 494.3 230.759 494.3 232.726V237.019H492.527V232.795C492.527 231.95 492.07 231.424 491.281 231.424C490.519 231.424 490.103 231.95 489.826 232.421C489.84 232.518 489.84 232.615 489.84 232.726V237.019H488.067V232.795C488.067 231.95 487.61 231.424 486.821 231.424C486.018 231.424 485.602 232.02 485.339 232.463V237.019H483.58ZM499.37 238.612C498.885 239.762 498.096 240.482 496.766 240.482C496.226 240.482 495.852 240.399 495.52 240.26V238.709C495.741 238.806 496.074 238.875 496.379 238.875C497.071 238.875 497.5 238.64 497.791 237.934L498.179 237.006L495.243 230.039H497.196L499.107 234.734L501.032 230.039H502.888L499.37 238.612Z" fill="#161616"/>
<path d="M399.613 253.073V246.022H402.322C404.528 246.022 406.029 247.643 406.029 249.547C406.029 251.451 404.528 253.073 402.322 253.073H399.613ZM402.343 246.888H400.56V252.206H402.343C403.914 252.206 405.052 251.018 405.052 249.547C405.052 248.066 403.914 246.888 402.343 246.888ZM409.833 247.795C411.465 247.795 412.583 249.054 412.583 250.534C412.583 252.015 411.465 253.274 409.833 253.274C408.192 253.274 407.084 252.015 407.084 250.534C407.084 249.054 408.192 247.795 409.833 247.795ZM409.843 252.468C410.901 252.468 411.677 251.582 411.677 250.534C411.677 249.477 410.901 248.6 409.843 248.6C408.756 248.6 407.98 249.477 407.98 250.534C407.98 251.592 408.756 252.468 409.843 252.468ZM413.278 252.378L413.882 251.864C414.234 252.307 414.658 252.559 415.171 252.559C415.735 252.559 416.058 252.216 416.058 251.773C416.058 250.635 413.519 251.038 413.519 249.245C413.519 248.449 414.194 247.795 415.171 247.795C415.896 247.795 416.521 248.137 416.873 248.631L416.279 249.134C416.007 248.751 415.624 248.51 415.181 248.51C414.637 248.51 414.345 248.832 414.345 249.225C414.345 250.363 416.894 250 416.894 251.733C416.884 252.68 416.128 253.274 415.181 253.274C414.375 253.274 413.741 252.952 413.278 252.378ZM417.704 252.378L418.309 251.864C418.661 252.307 419.084 252.559 419.598 252.559C420.162 252.559 420.484 252.216 420.484 251.773C420.484 250.635 417.946 251.038 417.946 249.245C417.946 248.449 418.621 247.795 419.598 247.795C420.323 247.795 420.948 248.137 421.3 248.631L420.706 249.134C420.434 248.751 420.051 248.51 419.608 248.51C419.064 248.51 418.772 248.832 418.772 249.225C418.772 250.363 421.32 250 421.32 251.733C421.31 252.68 420.555 253.274 419.608 253.274C418.802 253.274 418.168 252.952 417.704 252.378ZM423.147 246.676C422.814 246.676 422.542 246.405 422.542 246.072C422.542 245.75 422.814 245.478 423.147 245.478C423.479 245.478 423.741 245.75 423.741 246.072C423.741 246.405 423.479 246.676 423.147 246.676ZM422.714 253.073V247.996H423.57V253.073H422.714ZM429.892 252.237C429.419 252.871 428.663 253.274 427.717 253.274C426.004 253.274 424.947 252.015 424.947 250.534C424.947 248.993 425.934 247.795 427.505 247.795C428.885 247.795 429.781 248.761 429.781 250.01C429.781 250.212 429.751 250.403 429.721 250.544H425.823C425.853 251.763 426.629 252.498 427.717 252.498C428.371 252.498 428.925 252.196 429.258 251.743L429.892 252.237ZM427.485 248.52C426.649 248.52 426.065 249.013 425.883 249.89H428.925C428.895 249.144 428.381 248.52 427.485 248.52ZM431.232 253.073V247.996H432.089V248.631C432.461 248.187 432.925 247.895 433.569 247.895C433.731 247.895 433.882 247.915 434.002 247.956V248.792C433.851 248.751 433.7 248.731 433.499 248.731C432.834 248.731 432.401 249.074 432.089 249.587V253.073H431.232ZM437.95 253.073V247.996H438.806V248.57C439.219 248.117 439.743 247.795 440.499 247.795C441.637 247.795 442.483 248.56 442.483 250V253.073H441.627V250.031C441.627 249.124 441.113 248.6 440.327 248.6C439.592 248.6 439.129 249.023 438.806 249.557V253.073H437.95ZM444.971 245.82C445.979 245.82 446.664 246.586 446.664 247.502C446.664 248.419 445.979 249.185 444.971 249.185C443.954 249.185 443.269 248.419 443.269 247.502C443.269 246.586 443.954 245.82 444.971 245.82ZM444.971 248.58C445.556 248.58 445.989 248.097 445.989 247.502C445.989 246.898 445.556 246.425 444.971 246.425C444.367 246.425 443.944 246.898 443.944 247.502C443.944 248.107 444.367 248.58 444.971 248.58Z" fill="#161616"/>
<path d="M449.608 253.073V246.938L447.744 247.946L447.281 247.301L449.598 246.022H450.504V253.073H449.608ZM457.136 251.129C457.136 252.408 456.099 253.274 454.679 253.274C453.46 253.274 452.654 252.78 452.09 251.844L452.886 251.35C453.319 252.126 453.883 252.458 454.669 252.458C455.545 252.458 456.2 251.944 456.2 251.088C456.2 250.293 455.636 249.739 454.709 249.739H453.51V248.923H454.568C455.374 248.923 455.887 248.439 455.887 247.754C455.887 247.039 455.354 246.636 454.628 246.636C453.994 246.636 453.5 246.959 453.168 247.573L452.412 247.11C452.916 246.284 453.661 245.82 454.689 245.82C455.908 245.82 456.814 246.556 456.814 247.674C456.814 248.359 456.492 248.943 455.887 249.275C456.703 249.608 457.136 250.313 457.136 251.129ZM458.205 253.073V252.257L460.592 249.799C461.418 248.933 461.791 248.54 461.791 247.795C461.791 247.059 461.257 246.636 460.542 246.636C459.796 246.636 459.313 247.009 458.9 247.694L458.154 247.241C458.729 246.344 459.514 245.82 460.612 245.82C461.791 245.82 462.727 246.586 462.727 247.734C462.727 248.691 462.103 249.406 461.257 250.293L459.323 252.257H462.919V253.073H458.205Z" fill="#161616"/>
<path d="M481.184 248.666C481.184 245.189 478.366 242.37 474.889 242.37C471.412 242.37 468.593 245.189 468.593 248.666C468.593 252.143 471.412 254.961 474.889 254.961C478.366 254.961 481.184 252.143 481.184 248.666Z" fill="#CE0500"/>
<path d="M472.854 251.813V251.066L474.652 249.245C475.181 248.701 475.453 248.406 475.453 247.908C475.453 247.402 475.09 247.115 474.607 247.115C474.07 247.115 473.73 247.409 473.436 247.9L472.756 247.485C473.194 246.797 473.813 246.374 474.682 246.374C475.581 246.374 476.299 246.956 476.299 247.84C476.299 248.558 475.831 249.101 475.241 249.698L473.859 251.066H476.442V251.813H472.854Z" fill="white"/>
<path d="M398.767 270.699L401.577 263.649H402.846L405.656 270.699H404.649L403.833 268.625H400.59L399.774 270.699H398.767ZM400.902 267.809H403.521L402.212 264.475L400.902 267.809ZM405.797 265.623H406.724L408.345 269.803L409.967 265.623H410.894L408.909 270.699H407.781L405.797 265.623ZM413.225 270.841C412.228 270.841 411.553 270.287 411.553 269.42C411.553 268.655 412.137 268.111 413.215 267.93L414.927 267.648V267.295C414.927 266.59 414.423 266.187 413.698 266.187C413.114 266.187 412.641 266.459 412.328 266.892L411.684 266.399C412.127 265.794 412.842 265.421 413.728 265.421C415.018 265.421 415.783 266.177 415.783 267.295V270.699H414.927V270.055C414.544 270.548 413.879 270.841 413.225 270.841ZM412.419 269.39C412.419 269.823 412.771 270.135 413.366 270.135C414.041 270.135 414.595 269.813 414.927 269.269V268.272L413.426 268.524C412.731 268.645 412.419 268.957 412.419 269.39ZM417.501 270.699V265.623H418.357V266.197C418.77 265.744 419.293 265.421 420.049 265.421C421.187 265.421 422.033 266.187 422.033 267.627V270.699H421.177V267.658C421.177 266.751 420.663 266.227 419.878 266.227C419.142 266.227 418.679 266.65 418.357 267.184V270.699H417.501ZM426.094 270.095C426.718 270.095 427.232 269.793 427.544 269.35L428.219 269.863C427.746 270.498 427.01 270.901 426.084 270.901C424.401 270.901 423.324 269.642 423.324 268.161C423.324 266.681 424.401 265.421 426.084 265.421C427 265.421 427.746 265.834 428.219 266.459L427.544 266.973C427.232 266.529 426.718 266.227 426.084 266.227C424.996 266.227 424.22 267.083 424.22 268.161C424.22 269.249 424.996 270.095 426.094 270.095ZM433.708 269.863C433.235 270.498 432.48 270.901 431.533 270.901C429.82 270.901 428.763 269.642 428.763 268.161C428.763 266.62 429.75 265.421 431.321 265.421C432.701 265.421 433.598 266.388 433.598 267.637C433.598 267.839 433.567 268.03 433.537 268.171H429.639C429.669 269.39 430.445 270.125 431.533 270.125C432.188 270.125 432.742 269.823 433.074 269.37L433.708 269.863ZM431.301 266.147C430.465 266.147 429.881 266.64 429.7 267.517H432.742C432.711 266.771 432.198 266.147 431.301 266.147ZM435.049 270.699V265.623H435.905V266.177C436.288 265.734 436.791 265.421 437.496 265.421C438.232 265.421 438.836 265.754 439.148 266.399C439.551 265.845 440.085 265.421 440.961 265.421C442.049 265.421 442.845 266.147 442.845 267.527V270.699H441.989V267.557C441.989 266.711 441.515 266.227 440.79 266.227C440.145 266.227 439.692 266.59 439.36 267.184C439.37 267.295 439.38 267.406 439.38 267.527V270.699H438.524V267.557C438.524 266.711 438.06 266.227 437.325 266.227C436.63 266.227 436.197 266.66 435.905 267.184V270.699H435.049ZM449.083 269.863C448.61 270.498 447.854 270.901 446.907 270.901C445.195 270.901 444.137 269.642 444.137 268.161C444.137 266.62 445.124 265.421 446.696 265.421C448.076 265.421 448.972 266.388 448.972 267.637C448.972 267.839 448.942 268.03 448.912 268.171H445.014C445.044 269.39 445.819 270.125 446.907 270.125C447.562 270.125 448.116 269.823 448.448 269.37L449.083 269.863ZM446.676 266.147C445.84 266.147 445.255 266.64 445.074 267.517H448.116C448.086 266.771 447.572 266.147 446.676 266.147ZM450.423 270.699V265.623H451.279V266.197C451.692 265.744 452.216 265.421 452.972 265.421C454.11 265.421 454.956 266.187 454.956 267.627V270.699H454.1V267.658C454.1 266.751 453.586 266.227 452.8 266.227C452.065 266.227 451.602 266.65 451.279 267.184V270.699H450.423ZM456.971 268.997V266.399H456.014V265.623H456.971V264.354H457.837V265.623H459.6V266.399H457.837V268.997C457.837 269.793 458.24 270.015 458.855 270.015C459.187 270.015 459.419 269.974 459.61 269.894V270.659C459.368 270.76 459.096 270.8 458.734 270.8C457.606 270.8 456.971 270.236 456.971 268.997ZM463.191 268.161C463.191 266.681 464.208 265.421 465.8 265.421C466.555 265.421 467.149 265.714 467.603 266.227V263.145H468.459V270.699H467.603V270.095C467.149 270.609 466.555 270.901 465.8 270.901C464.208 270.901 463.191 269.642 463.191 268.161ZM464.097 268.161C464.097 269.239 464.823 270.095 465.9 270.095C466.605 270.095 467.23 269.753 467.603 269.158V267.164C467.21 266.56 466.595 266.227 465.9 266.227C464.823 266.227 464.097 267.083 464.097 268.161ZM473.799 268.524V265.623H474.655V268.494C474.655 270.015 473.779 270.901 472.399 270.901C471.029 270.901 470.153 270.015 470.153 268.494V265.623H471.009V268.524C471.009 269.521 471.543 270.095 472.409 270.095C473.255 270.095 473.799 269.521 473.799 268.524ZM478.624 268.161C478.624 266.681 479.641 265.421 481.233 265.421C481.988 265.421 482.582 265.714 483.036 266.227V263.145H483.892V270.699H483.036V270.095C482.582 270.609 481.988 270.901 481.233 270.901C479.641 270.901 478.624 269.642 478.624 268.161ZM479.53 268.161C479.53 269.239 480.256 270.095 481.333 270.095C482.038 270.095 482.663 269.753 483.036 269.158V267.164C482.643 266.56 482.028 266.227 481.333 266.227C480.256 266.227 479.53 267.083 479.53 268.161ZM488.013 265.421C489.645 265.421 490.763 266.681 490.763 268.161C490.763 269.642 489.645 270.901 488.013 270.901C486.371 270.901 485.264 269.642 485.264 268.161C485.264 266.681 486.371 265.421 488.013 265.421ZM488.023 270.095C489.081 270.095 489.857 269.209 489.857 268.161C489.857 267.104 489.081 266.227 488.023 266.227C486.936 266.227 486.16 267.104 486.16 268.161C486.16 269.219 486.936 270.095 488.023 270.095ZM491.458 270.004L492.062 269.491C492.415 269.934 492.838 270.186 493.352 270.186C493.916 270.186 494.238 269.843 494.238 269.4C494.238 268.262 491.7 268.665 491.7 266.872C491.7 266.076 492.375 265.421 493.352 265.421C494.077 265.421 494.701 265.764 495.054 266.257L494.46 266.761C494.188 266.378 493.805 266.137 493.362 266.137C492.818 266.137 492.526 266.459 492.526 266.852C492.526 267.99 495.074 267.627 495.074 269.36C495.064 270.307 494.309 270.901 493.362 270.901C492.556 270.901 491.921 270.579 491.458 270.004ZM495.884 270.004L496.489 269.491C496.841 269.934 497.264 270.186 497.778 270.186C498.342 270.186 498.664 269.843 498.664 269.4C498.664 268.262 496.126 268.665 496.126 266.872C496.126 266.076 496.801 265.421 497.778 265.421C498.503 265.421 499.128 265.764 499.48 266.257L498.886 266.761C498.614 266.378 498.231 266.137 497.788 266.137C497.244 266.137 496.952 266.459 496.952 266.852C496.952 267.99 499.5 267.627 499.5 269.36C499.49 270.307 498.735 270.901 497.788 270.901C496.982 270.901 496.348 270.579 495.884 270.004ZM501.327 264.303C500.995 264.303 500.723 264.031 500.723 263.699C500.723 263.377 500.995 263.105 501.327 263.105C501.66 263.105 501.922 263.377 501.922 263.699C501.922 264.031 501.66 264.303 501.327 264.303ZM500.894 270.699V265.623H501.75V270.699H500.894ZM508.072 269.863C507.599 270.498 506.843 270.901 505.896 270.901C504.184 270.901 503.127 269.642 503.127 268.161C503.127 266.62 504.114 265.421 505.685 265.421C507.065 265.421 507.961 266.388 507.961 267.637C507.961 267.839 507.931 268.03 507.901 268.171H504.003C504.033 269.39 504.809 270.125 505.896 270.125C506.551 270.125 507.105 269.823 507.438 269.37L508.072 269.863ZM505.665 266.147C504.829 266.147 504.245 266.64 504.063 267.517H507.105C507.075 266.771 506.561 266.147 505.665 266.147ZM509.412 270.699V265.623H510.269V266.257C510.641 265.814 511.105 265.522 511.749 265.522C511.91 265.522 512.062 265.542 512.182 265.583V266.419C512.031 266.378 511.88 266.358 511.679 266.358C511.014 266.358 510.581 266.701 510.269 267.214V270.699H509.412ZM516.594 266.791C516.232 266.791 515.939 266.499 515.939 266.147C515.939 265.794 516.232 265.512 516.594 265.512C516.957 265.512 517.239 265.794 517.239 266.147C517.239 266.499 516.957 266.791 516.594 266.791ZM516.594 270.81C516.232 270.81 515.939 270.528 515.939 270.176C515.939 269.823 516.232 269.531 516.594 269.531C516.957 269.531 517.239 269.823 517.239 270.176C517.239 270.528 516.957 270.81 516.594 270.81Z" fill="#161616"/>
<path d="M450.891 275.106H408.567C403.005 275.106 398.495 279.616 398.495 285.179C398.495 290.742 403.005 295.251 408.567 295.251H450.891C456.454 295.251 460.963 290.742 460.963 285.179C460.963 279.616 456.454 275.106 450.891 275.106Z" fill="#FCEEAC"/>
<path d="M416.751 285.179C416.751 281.007 413.369 277.624 409.197 277.624C405.025 277.624 401.642 281.007 401.642 285.179C401.642 289.351 405.025 292.733 409.197 292.733C413.369 292.733 416.751 289.351 416.751 285.179Z" fill="#E8D45C"/>
<path d="M409.243 288.326V283.726L407.846 284.481L407.498 283.998L409.236 283.038H409.916V288.326H409.243Z" fill="#616161"/>
<path d="M423.213 282.343L422.165 281.238H423L423.925 282.343H423.213ZM420.75 288.563L423.033 282.834H424.064L426.347 288.563H425.529L424.866 286.877H422.231L421.568 288.563H420.75ZM422.484 286.214H424.612L423.548 283.505L422.484 286.214ZM429.751 287.179V285.068H428.973V284.438H429.751V283.407H430.454V284.438H431.887V285.068H430.454V287.179C430.454 287.826 430.782 288.006 431.281 288.006C431.551 288.006 431.739 287.973 431.895 287.908V288.53C431.698 288.612 431.477 288.644 431.183 288.644C430.266 288.644 429.751 288.186 429.751 287.179ZM432.95 288.563V284.438H433.645V284.953C433.948 284.593 434.325 284.356 434.849 284.356C434.979 284.356 435.102 284.372 435.2 284.405V285.084C435.078 285.052 434.955 285.035 434.791 285.035C434.251 285.035 433.899 285.314 433.645 285.731V288.563H432.95ZM437.14 288.677C436.33 288.677 435.782 288.227 435.782 287.523C435.782 286.901 436.256 286.459 437.132 286.312L438.523 286.083V285.796C438.523 285.223 438.114 284.896 437.525 284.896C437.05 284.896 436.665 285.117 436.412 285.469L435.888 285.068C436.248 284.577 436.829 284.274 437.549 284.274C438.597 284.274 439.219 284.888 439.219 285.796V288.563H438.523V288.039C438.212 288.44 437.672 288.677 437.14 288.677ZM436.485 287.499C436.485 287.851 436.772 288.104 437.255 288.104C437.803 288.104 438.253 287.842 438.523 287.4V286.59L437.304 286.795C436.739 286.893 436.485 287.147 436.485 287.499ZM440.966 283.366C440.696 283.366 440.475 283.145 440.475 282.875C440.475 282.613 440.696 282.392 440.966 282.392C441.236 282.392 441.449 282.613 441.449 282.875C441.449 283.145 441.236 283.366 440.966 283.366ZM440.614 288.563V284.438H441.309V288.563H440.614ZM443.017 287.179V285.068H442.24V284.438H443.017V283.407H443.721V284.438H445.153V285.068H443.721V287.179C443.721 287.826 444.049 288.006 444.548 288.006C444.818 288.006 445.006 287.973 445.162 287.908V288.53C444.965 288.612 444.744 288.644 444.45 288.644C443.533 288.644 443.017 288.186 443.017 287.179ZM449.803 287.883C449.418 288.399 448.805 288.726 448.035 288.726C446.644 288.726 445.785 287.703 445.785 286.5C445.785 285.248 446.587 284.274 447.864 284.274C448.985 284.274 449.713 285.06 449.713 286.075C449.713 286.238 449.689 286.394 449.664 286.508H446.497C446.521 287.499 447.151 288.096 448.035 288.096C448.567 288.096 449.017 287.851 449.288 287.482L449.803 287.883ZM447.847 284.863C447.168 284.863 446.693 285.264 446.546 285.976H449.017C448.993 285.371 448.576 284.863 447.847 284.863ZM450.892 288.563V284.438H451.588V284.953C451.891 284.593 452.267 284.356 452.791 284.356C452.922 284.356 453.045 284.372 453.143 284.405V285.084C453.02 285.052 452.897 285.035 452.734 285.035C452.193 285.035 451.842 285.314 451.588 285.731V288.563H450.892Z" fill="#161616"/>
<path d="M677.064 211.838H388.108V310.675H677.064V211.838Z" stroke="#DDDDDD"/>
<path d="M89.4315 350.65V341.837H92.894C95.6891 341.837 97.5777 343.864 97.5777 346.244C97.5777 348.623 95.6891 350.65 92.894 350.65H89.4315ZM92.9191 343.461H91.2194V349.026H92.9191C94.5559 349.026 95.7394 347.805 95.7394 346.244C95.7394 344.67 94.5559 343.461 92.9191 343.461ZM102.147 344.053C104.212 344.053 105.622 345.576 105.622 347.477C105.622 349.379 104.212 350.902 102.147 350.902C100.082 350.902 98.6718 349.379 98.6718 347.477C98.6718 345.576 100.082 344.053 102.147 344.053ZM102.172 349.391C103.192 349.391 103.96 348.573 103.96 347.477C103.96 346.369 103.192 345.564 102.172 345.564C101.114 345.564 100.334 346.369 100.334 347.477C100.334 348.585 101.114 349.391 102.172 349.391ZM106.317 349.731L107.374 348.774C107.765 349.265 108.231 349.618 108.835 349.618C109.351 349.618 109.616 349.316 109.616 348.938C109.616 347.83 106.581 348.245 106.581 346.017C106.581 344.896 107.526 344.053 108.848 344.053C109.817 344.053 110.698 344.519 111.152 345.136L110.094 346.067C109.767 345.664 109.351 345.337 108.86 345.337C108.357 345.337 108.117 345.614 108.117 345.941C108.117 347.024 111.152 346.646 111.152 348.837C111.127 350.172 110.056 350.902 108.86 350.902C107.727 350.902 106.921 350.449 106.317 349.731ZM111.985 349.731L113.043 348.774C113.433 349.265 113.899 349.618 114.503 349.618C115.02 349.618 115.284 349.316 115.284 348.938C115.284 347.83 112.25 348.245 112.25 346.017C112.25 344.896 113.194 344.053 114.516 344.053C115.485 344.053 116.367 344.519 116.82 345.136L115.762 346.067C115.435 345.664 115.02 345.337 114.529 345.337C114.025 345.337 113.786 345.614 113.786 345.941C113.786 347.024 116.82 346.646 116.82 348.837C116.795 350.172 115.725 350.902 114.529 350.902C113.395 350.902 112.59 350.449 111.985 349.731ZM119.1 343.197C118.533 343.197 118.055 342.718 118.055 342.152C118.055 341.585 118.533 341.107 119.1 341.107C119.666 341.107 120.132 341.585 120.132 342.152C120.132 342.718 119.666 343.197 119.1 343.197ZM118.294 350.65V344.305H119.893V350.65H118.294ZM127.652 349.618C127.061 350.411 126.079 350.902 124.882 350.902C122.629 350.902 121.357 349.328 121.357 347.477C121.357 345.601 122.541 344.053 124.618 344.053C126.381 344.053 127.539 345.249 127.539 346.911C127.539 347.263 127.489 347.591 127.438 347.805H122.994C123.145 348.988 123.875 349.467 124.87 349.467C125.562 349.467 126.167 349.165 126.507 348.711L127.652 349.618ZM124.58 345.362C123.762 345.362 123.22 345.815 123.044 346.646H125.965C125.94 346.004 125.474 345.362 124.58 345.362ZM129.102 350.65V344.305H130.701V344.934C131.116 344.506 131.657 344.179 132.375 344.179C132.589 344.179 132.778 344.216 132.929 344.267V345.841C132.728 345.79 132.514 345.752 132.224 345.752C131.443 345.752 130.94 346.181 130.701 346.583V350.65H129.102ZM133.663 349.731L134.72 348.774C135.11 349.265 135.576 349.618 136.181 349.618C136.697 349.618 136.961 349.316 136.961 348.938C136.961 347.83 133.927 348.245 133.927 346.017C133.927 344.896 134.871 344.053 136.193 344.053C137.163 344.053 138.044 344.519 138.497 345.136L137.44 346.067C137.112 345.664 136.697 345.337 136.206 345.337C135.702 345.337 135.463 345.614 135.463 345.941C135.463 347.024 138.497 346.646 138.497 348.837C138.472 350.172 137.402 350.902 136.206 350.902C135.073 350.902 134.267 350.449 133.663 349.731ZM146.411 349.391C147.041 349.391 147.544 349.102 147.847 348.661L149.093 349.618C148.501 350.398 147.57 350.902 146.411 350.902C144.22 350.902 142.911 349.328 142.911 347.477C142.911 345.627 144.22 344.053 146.411 344.053C147.57 344.053 148.501 344.556 149.093 345.337L147.847 346.294C147.544 345.853 147.041 345.564 146.386 345.564C145.341 345.564 144.573 346.369 144.573 347.477C144.573 348.598 145.341 349.391 146.411 349.391ZM150.287 350.65V341.207H151.886V350.65H150.287ZM155.906 343.297H154.508L155.805 341.207H157.845L159.142 343.297H157.744L156.825 341.925L155.906 343.297ZM156.825 344.053C158.89 344.053 160.3 345.576 160.3 347.477C160.3 349.379 158.89 350.902 156.825 350.902C154.76 350.902 153.35 349.379 153.35 347.477C153.35 345.576 154.76 344.053 156.825 344.053ZM156.85 349.391C157.87 349.391 158.638 348.573 158.638 347.477C158.638 346.369 157.87 345.564 156.85 345.564C155.793 345.564 155.012 346.369 155.012 347.477C155.012 348.585 155.793 349.391 156.85 349.391ZM162.088 348.334V345.74H160.904V344.305H162.088V342.718H163.699V344.305H165.638V345.74H163.699V348.334C163.699 349.039 164.077 349.316 164.707 349.316C165.147 349.316 165.437 349.265 165.651 349.177V350.575C165.336 350.713 164.959 350.776 164.429 350.776C162.843 350.776 162.088 349.882 162.088 348.334ZM171.238 347.905V344.305H172.85V347.83C172.85 349.731 171.742 350.902 169.878 350.902C168.015 350.902 166.92 349.731 166.92 347.83V344.305H168.531V347.905C168.531 348.825 169.01 349.391 169.891 349.391C170.76 349.391 171.238 348.825 171.238 347.905ZM174.619 350.65V344.305H176.218V344.934C176.634 344.506 177.175 344.179 177.893 344.179C178.107 344.179 178.296 344.216 178.447 344.267V345.841C178.246 345.79 178.031 345.752 177.742 345.752C176.961 345.752 176.458 346.181 176.218 346.583V350.65H174.619ZM183.153 343.297H181.617L182.927 341.207H184.664L183.153 343.297ZM185.306 349.618C184.715 350.411 183.733 350.902 182.536 350.902C180.283 350.902 179.011 349.328 179.011 347.477C179.011 345.601 180.195 344.053 182.272 344.053C184.035 344.053 185.193 345.249 185.193 346.911C185.193 347.263 185.143 347.591 185.092 347.805H180.648C180.799 348.988 181.529 349.467 182.524 349.467C183.216 349.467 183.821 349.165 184.161 348.711L185.306 349.618ZM182.234 345.362C181.416 345.362 180.874 345.815 180.698 346.646H183.619C183.594 346.004 183.128 345.362 182.234 345.362ZM186.115 349.731L187.173 348.774C187.563 349.265 188.029 349.618 188.633 349.618C189.15 349.618 189.414 349.316 189.414 348.938C189.414 347.83 186.38 348.245 186.38 346.017C186.38 344.896 187.324 344.053 188.646 344.053C189.616 344.053 190.497 344.519 190.95 345.136L189.893 346.067C189.565 345.664 189.15 345.337 188.659 345.337C188.155 345.337 187.916 345.614 187.916 345.941C187.916 347.024 190.95 346.646 190.95 348.837C190.925 350.172 189.855 350.902 188.659 350.902C187.525 350.902 186.72 350.449 186.115 349.731Z" fill="#161616"/>
<path d="M377.405 364.185H88.4495V463.022H377.405V364.185Z" fill="white"/>
<path d="M361.352 380.238C362.045 380.238 362.611 379.672 362.611 378.979C362.611 378.287 362.045 377.72 361.352 377.72C360.66 377.72 360.093 378.287 360.093 378.979C360.093 379.672 360.66 380.238 361.352 380.238ZM361.352 381.497C360.66 381.497 360.093 382.064 360.093 382.756C360.093 383.449 360.66 384.016 361.352 384.016C362.045 384.016 362.611 383.449 362.611 382.756C362.611 382.064 362.045 381.497 361.352 381.497ZM361.352 385.275C360.66 385.275 360.093 385.841 360.093 386.534C360.093 387.226 360.66 387.793 361.352 387.793C362.045 387.793 362.611 387.226 362.611 386.534C362.611 385.841 362.045 385.275 361.352 385.275Z" fill="#3A3A3A"/>
<path d="M100.263 389.367V379.672H103.463C105.595 379.672 106.897 380.766 106.897 382.566C106.897 384.353 105.595 385.447 103.463 385.447H102.23V389.367H100.263ZM103.546 381.306H102.23V383.813H103.546C104.377 383.813 104.875 383.328 104.875 382.539C104.875 381.805 104.377 381.306 103.546 381.306ZM111.927 381.278H110.238L111.678 378.979H113.589L111.927 381.278ZM114.296 388.231C113.645 389.103 112.564 389.644 111.249 389.644C108.77 389.644 107.371 387.912 107.371 385.876C107.371 383.813 108.673 382.109 110.958 382.109C112.897 382.109 114.171 383.425 114.171 385.253C114.171 385.641 114.116 386.001 114.06 386.237H109.171C109.337 387.538 110.141 388.065 111.235 388.065C111.997 388.065 112.661 387.732 113.035 387.234L114.296 388.231ZM110.916 383.55C110.016 383.55 109.42 384.048 109.227 384.962H112.44C112.412 384.256 111.9 383.55 110.916 383.55ZM115.89 389.367V382.386H117.649V382.94C118.133 382.469 118.784 382.109 119.712 382.109C121.222 382.109 122.427 383.148 122.427 385.212V389.367H120.654V385.281C120.654 384.353 120.128 383.771 119.269 383.771C118.383 383.771 117.912 384.367 117.649 384.81V389.367H115.89ZM128.482 381.278H126.792L128.233 378.979H130.144L128.482 381.278ZM130.85 388.231C130.2 389.103 129.119 389.644 127.804 389.644C125.324 389.644 123.926 387.912 123.926 385.876C123.926 383.813 125.227 382.109 127.513 382.109C129.452 382.109 130.726 383.425 130.726 385.253C130.726 385.641 130.67 386.001 130.615 386.237H125.726C125.892 387.538 126.696 388.065 127.79 388.065C128.551 388.065 129.216 387.732 129.59 387.234L130.85 388.231ZM127.471 383.55C126.571 383.55 125.975 384.048 125.781 384.962H128.995C128.967 384.256 128.454 383.55 127.471 383.55ZM132.444 389.367V378.979H134.203V389.367H132.444ZM139.636 382.109C141.908 382.109 143.459 383.785 143.459 385.876C143.459 387.968 141.908 389.644 139.636 389.644C137.365 389.644 135.814 387.968 135.814 385.876C135.814 383.785 137.365 382.109 139.636 382.109ZM139.664 387.982C140.786 387.982 141.631 387.081 141.631 385.876C141.631 384.658 140.786 383.771 139.664 383.771C138.501 383.771 137.642 384.658 137.642 385.876C137.642 387.095 138.501 387.982 139.664 387.982ZM145.063 392.774V382.386H146.822V382.954C147.362 382.414 148.041 382.109 148.997 382.109C151.213 382.109 152.542 383.841 152.542 385.876C152.542 387.912 151.213 389.644 148.997 389.644C148.041 389.644 147.362 389.339 146.822 388.799V392.774H145.063ZM148.747 383.771C147.93 383.771 147.266 384.131 146.822 384.782V386.971C147.293 387.635 147.944 387.982 148.747 387.982C149.939 387.982 150.714 387.095 150.714 385.876C150.714 384.658 149.939 383.771 148.747 383.771ZM160.646 388.231C159.995 389.103 158.915 389.644 157.599 389.644C155.12 389.644 153.721 387.912 153.721 385.876C153.721 383.813 155.023 382.109 157.308 382.109C159.247 382.109 160.522 383.425 160.522 385.253C160.522 385.641 160.466 386.001 160.411 386.237H155.522C155.688 387.538 156.491 388.065 157.585 388.065C158.347 388.065 159.012 387.732 159.386 387.234L160.646 388.231ZM157.267 383.55C156.367 383.55 155.771 384.048 155.577 384.962H158.79C158.763 384.256 158.25 383.55 157.267 383.55Z" fill="#161616"/>
<path d="M166.346 389.367V379.672H169.31C171.443 379.672 172.759 380.766 172.759 382.566C172.759 383.744 172.191 384.616 171.193 385.073L174.227 389.367H171.914L169.324 385.447H168.313V389.367H166.346ZM169.421 381.306H168.313V383.813H169.421C170.252 383.813 170.736 383.328 170.736 382.539C170.736 381.805 170.252 381.306 169.421 381.306ZM178.534 382.109C180.805 382.109 182.356 383.785 182.356 385.876C182.356 387.968 180.805 389.644 178.534 389.644C176.262 389.644 174.711 387.968 174.711 385.876C174.711 383.785 176.262 382.109 178.534 382.109ZM178.562 387.982C179.683 387.982 180.528 387.081 180.528 385.876C180.528 384.658 179.683 383.771 178.562 383.771C177.398 383.771 176.539 384.658 176.539 385.876C176.539 387.095 177.398 387.982 178.562 387.982ZM183.96 389.367V378.979H185.719V389.367H183.96ZM187.828 389.367V378.979H189.587V389.367H187.828ZM193.663 389.574C192.265 389.574 191.309 388.771 191.309 387.483C191.309 386.43 192.126 385.641 193.622 385.392L195.755 385.032V384.852C195.755 384.118 195.201 383.647 194.397 383.647C193.719 383.647 193.193 383.965 192.819 384.478L191.531 383.494C192.154 382.636 193.179 382.109 194.453 382.109C196.475 382.109 197.514 383.314 197.514 384.852V389.367H195.755V388.688C195.312 389.228 194.481 389.574 193.663 389.574ZM193.054 387.4C193.054 387.871 193.428 388.175 194.024 388.175C194.827 388.175 195.408 387.802 195.755 387.248V386.264L194.093 386.541C193.359 386.666 193.054 386.971 193.054 387.4ZM199.528 389.367V382.386H201.286V382.94C201.771 382.469 202.422 382.109 203.35 382.109C204.86 382.109 206.065 383.148 206.065 385.212V389.367H204.292V385.281C204.292 384.353 203.766 383.771 202.907 383.771C202.02 383.771 201.55 384.367 201.286 384.81V389.367H199.528ZM207.564 385.876C207.564 383.841 208.907 382.109 211.109 382.109C212.051 382.109 212.729 382.4 213.27 382.94V378.979H215.042V389.367H213.27V388.813C212.729 389.353 212.051 389.644 211.109 389.644C208.907 389.644 207.564 387.912 207.564 385.876ZM209.406 385.876C209.406 387.095 210.167 387.982 211.358 387.982C212.148 387.982 212.799 387.649 213.27 387.012V384.741C212.799 384.104 212.148 383.771 211.358 383.771C210.167 383.771 209.406 384.658 209.406 385.876Z" fill="#161616"/>
<path d="M377.405 364.185H88.4495V463.022H377.405V364.185Z" stroke="#DDDDDD"/>
<path d="M677.064 364.185H388.108V463.022H677.064V364.185Z" fill="white"/>
<path d="M399.921 389.367V379.672H403.121C405.254 379.672 406.555 380.766 406.555 382.566C406.555 384.353 405.254 385.447 403.121 385.447H401.888V389.367H399.921ZM403.204 381.306H401.888V383.813H403.204C404.035 383.813 404.533 383.328 404.533 382.539C404.533 381.805 404.035 381.306 403.204 381.306ZM411.585 381.278H409.896L411.336 378.979H413.247L411.585 381.278ZM413.954 388.231C413.303 389.103 412.222 389.644 410.907 389.644C408.428 389.644 407.029 387.912 407.029 385.876C407.029 383.813 408.331 382.109 410.616 382.109C412.555 382.109 413.829 383.425 413.829 385.253C413.829 385.641 413.774 386.001 413.718 386.237H408.829C408.996 387.538 409.799 388.065 410.893 388.065C411.655 388.065 412.319 387.732 412.693 387.234L413.954 388.231ZM410.574 383.55C409.674 383.55 409.079 384.048 408.885 384.962H412.098C412.07 384.256 411.558 383.55 410.574 383.55ZM415.548 389.367V382.386H417.307V382.94C417.791 382.469 418.442 382.109 419.37 382.109C420.88 382.109 422.085 383.148 422.085 385.212V389.367H420.312V385.281C420.312 384.353 419.786 383.771 418.927 383.771C418.041 383.771 417.57 384.367 417.307 384.81V389.367H415.548ZM428.14 381.278H426.451L427.891 378.979H429.802L428.14 381.278ZM430.509 388.231C429.858 389.103 428.777 389.644 427.462 389.644C424.982 389.644 423.584 387.912 423.584 385.876C423.584 383.813 424.886 382.109 427.171 382.109C429.11 382.109 430.384 383.425 430.384 385.253C430.384 385.641 430.328 386.001 430.273 386.237H425.384C425.55 387.538 426.354 388.065 427.448 388.065C428.21 388.065 428.874 387.732 429.248 387.234L430.509 388.231ZM427.129 383.55C426.229 383.55 425.633 384.048 425.44 384.962H428.653C428.625 384.256 428.113 383.55 427.129 383.55ZM432.103 389.367V378.979H433.861V389.367H432.103ZM439.294 382.109C441.566 382.109 443.117 383.785 443.117 385.876C443.117 387.968 441.566 389.644 439.294 389.644C437.023 389.644 435.472 387.968 435.472 385.876C435.472 383.785 437.023 382.109 439.294 382.109ZM439.322 387.982C440.444 387.982 441.289 387.081 441.289 385.876C441.289 384.658 440.444 383.771 439.322 383.771C438.159 383.771 437.3 384.658 437.3 385.876C437.3 387.095 438.159 387.982 439.322 387.982ZM444.722 392.774V382.386H446.48V382.954C447.021 382.414 447.699 382.109 448.655 382.109C450.871 382.109 452.2 383.841 452.2 385.876C452.2 387.912 450.871 389.644 448.655 389.644C447.699 389.644 447.021 389.339 446.48 388.799V392.774H444.722ZM448.406 383.771C447.588 383.771 446.924 384.131 446.48 384.782V386.971C446.951 387.635 447.602 387.982 448.406 387.982C449.597 387.982 450.372 387.095 450.372 385.876C450.372 384.658 449.597 383.771 448.406 383.771ZM460.304 388.231C459.653 389.103 458.573 389.644 457.257 389.644C454.778 389.644 453.379 387.912 453.379 385.876C453.379 383.813 454.681 382.109 456.967 382.109C458.906 382.109 460.18 383.425 460.18 385.253C460.18 385.641 460.124 386.001 460.069 386.237H455.18C455.346 387.538 456.149 388.065 457.244 388.065C458.005 388.065 458.67 387.732 459.044 387.234L460.304 388.231ZM456.925 383.55C456.025 383.55 455.429 384.048 455.235 384.962H458.448C458.421 384.256 457.908 383.55 456.925 383.55Z" fill="#161616"/>
<path d="M466.004 389.367V379.672H468.968C471.101 379.672 472.417 380.766 472.417 382.566C472.417 383.744 471.849 384.616 470.852 385.073L473.885 389.367H471.572L468.982 385.447H467.971V389.367H466.004ZM469.079 381.306H467.971V383.813H469.079C469.91 383.813 470.395 383.328 470.395 382.539C470.395 381.805 469.91 381.306 469.079 381.306ZM478.192 382.109C480.463 382.109 482.014 383.785 482.014 385.876C482.014 387.968 480.463 389.644 478.192 389.644C475.921 389.644 474.369 387.968 474.369 385.876C474.369 383.785 475.921 382.109 478.192 382.109ZM478.22 387.982C479.341 387.982 480.186 387.081 480.186 385.876C480.186 384.658 479.341 383.771 478.22 383.771C477.056 383.771 476.198 384.658 476.198 385.876C476.198 387.095 477.056 387.982 478.22 387.982ZM483.618 389.367V378.979H485.377V389.367H483.618ZM487.486 389.367V378.979H489.245V389.367H487.486ZM493.322 389.574C491.923 389.574 490.967 388.771 490.967 387.483C490.967 386.43 491.784 385.641 493.28 385.392L495.413 385.032V384.852C495.413 384.118 494.859 383.647 494.056 383.647C493.377 383.647 492.851 383.965 492.477 384.478L491.189 383.494C491.812 382.636 492.837 382.109 494.111 382.109C496.133 382.109 497.172 383.314 497.172 384.852V389.367H495.413V388.688C494.97 389.228 494.139 389.574 493.322 389.574ZM492.712 387.4C492.712 387.871 493.086 388.175 493.682 388.175C494.485 388.175 495.067 387.802 495.413 387.248V386.264L493.751 386.541C493.017 386.666 492.712 386.971 492.712 387.4ZM499.186 389.367V382.386H500.945V382.94C501.429 382.469 502.08 382.109 503.008 382.109C504.518 382.109 505.723 383.148 505.723 385.212V389.367H503.95V385.281C503.95 384.353 503.424 383.771 502.565 383.771C501.679 383.771 501.208 384.367 500.945 384.81V389.367H499.186ZM507.222 385.876C507.222 383.841 508.565 382.109 510.767 382.109C511.709 382.109 512.388 382.4 512.928 382.94V378.979H514.7V389.367H512.928V388.813C512.388 389.353 511.709 389.644 510.767 389.644C508.565 389.644 507.222 387.912 507.222 385.876ZM509.064 385.876C509.064 387.095 509.825 387.982 511.016 387.982C511.806 387.982 512.457 387.649 512.928 387.012V384.741C512.457 384.104 511.806 383.771 511.016 383.771C509.825 383.771 509.064 384.658 509.064 385.876Z" fill="#161616"/>
<path d="M677.064 364.185H388.108V463.022H677.064V364.185Z" stroke="#DDDDDD"/>
</g>
<path d="M533.845 45.6412H73.026C67.6369 45.6412 63.2682 50.0099 63.2682 55.399V473.409C63.2682 478.798 67.6369 483.167 73.026 483.167H533.845C539.234 483.167 543.602 478.798 543.602 473.409V55.399C543.602 50.0099 539.234 45.6412 533.845 45.6412Z" stroke="#161616"/>
</g>
<path d="M475.927 0.472149H10.0726C4.77041 0.472149 0.472168 4.77039 0.472168 10.0725V380.238C0.472168 385.54 4.77041 389.839 10.0726 389.839H475.927C481.23 389.839 485.528 385.54 485.528 380.238V10.0725C485.528 4.77039 481.23 0.472149 475.927 0.472149Z" stroke="#DDDDDD" stroke-width="1.5"/>
</g>
<defs>
<clipPath id="clip0_70_7807">
<rect width="486" height="390.311" fill="white"/>
</clipPath>
</defs>
</svg>
